<svg xmlns="http://www.w3.org/2000/svg" width="225" height="225" viewBox="0 0 225 225" version="1.1">
	<path d="M 75 8.801 C 75 9.223, 76.463 10.453, 78.250 11.534 L 81.500 13.500 71 14.139 C 60.869 14.756, 56.170 15.686, 52.332 17.834 C 50.802 18.690, 51.262 19.037, 55.259 20.044 C 60.643 21.399, 61.787 23.426, 56.621 22.457 C 51.777 21.548, 47.617 24.002, 45.644 28.932 C 44.762 31.136, 41.750 35.766, 38.950 39.220 C 33.033 46.519, 26.392 59.582, 25.396 65.879 L 24.703 70.258 29.352 67.534 C 31.908 66.036, 34 64.993, 34 65.218 C 34 65.442, 32.873 67.961, 31.496 70.816 C 26.415 81.350, 24.179 94.186, 24.803 109.250 C 24.911 111.862, 25.362 114, 25.803 114 C 26.245 114, 27.575 112.312, 28.759 110.250 L 30.912 106.500 30.315 113.697 C 29.662 121.576, 30.997 130.243, 34.167 138.716 C 36.225 144.217, 37.931 144.858, 38.094 140.191 C 38.146 138.711, 38.774 140.425, 39.490 144 C 41.251 152.790, 44.939 160.773, 50.700 168.260 L 55.500 174.500 56.017 170 L 56.533 165.500 58.892 170 C 62.087 176.095, 67.801 183.823, 69.971 184.985 C 71.579 185.845, 71.707 185.488, 71.328 181.217 L 70.909 176.500 72.413 179.766 C 73.969 183.144, 83.242 193.524, 86.044 195.024 C 87.374 195.735, 87.571 195.352, 87.245 192.688 C 86.864 189.574, 86.916 189.605, 89.494 194 C 90.946 196.475, 93.791 200.213, 95.817 202.306 L 99.500 206.113 100.051 203.306 L 100.603 200.500 102.742 204.500 C 103.919 206.700, 106.623 210.487, 108.751 212.915 L 112.621 217.331 117.248 211.651 C 119.792 208.527, 122.158 205.077, 122.505 203.985 C 123.351 201.319, 125 201.458, 125 204.196 C 125 206.226, 125.272 206.131, 128.596 202.946 C 130.574 201.051, 133.533 197.250, 135.172 194.500 C 137.984 189.780, 138.129 189.679, 137.758 192.688 C 137.426 195.380, 137.617 195.740, 138.992 195.004 C 141.947 193.423, 149.460 185.113, 151.860 180.770 L 154.220 176.500 153.736 181.217 C 153.304 185.442, 153.433 185.839, 154.971 185.015 C 157.350 183.742, 161.871 177.636, 165.719 170.500 L 168.955 164.500 168.977 169.309 C 168.992 172.325, 169.381 173.882, 170.022 173.486 C 172.118 172.191, 179.262 161.657, 181.544 156.496 C 182.845 153.555, 184.527 148.088, 185.284 144.346 C 186.606 137.802, 186.686 137.675, 187.388 141.021 L 188.118 144.500 189.944 141 C 190.948 139.075, 192.557 133.946, 193.518 129.603 C 194.759 123.999, 195.100 119.499, 194.692 114.112 L 194.118 106.519 196.255 110.260 C 197.431 112.317, 198.693 114, 199.060 114 C 200.258 114, 200.793 101.124, 199.919 93.330 C 198.990 85.049, 197.034 78.259, 193.358 70.563 C 192.061 67.847, 191 65.442, 191 65.218 C 191 64.993, 193.092 66.036, 195.648 67.534 L 200.297 70.258 199.604 65.879 C 198.608 59.582, 191.967 46.519, 186.050 39.220 C 183.250 35.766, 180.238 31.136, 179.356 28.932 C 177.414 24.079, 173.188 21.546, 168.345 22.331 C 163.275 23.154, 164.344 21.403, 169.741 20.044 C 173.738 19.037, 174.198 18.690, 172.668 17.834 C 168.830 15.686, 164.131 14.756, 154 14.139 L 143.500 13.500 146.750 11.534 C 148.537 10.453, 150 9.189, 150 8.724 C 150 7.635, 137.358 8.779, 129.109 10.615 C 125.593 11.397, 120.458 13.172, 117.696 14.559 L 112.675 17.080 107.225 14.500 C 104.227 13.080, 99.012 11.301, 95.637 10.546 C 88.110 8.862, 75 7.754, 75 8.801 M 132 12.973 C 121.975 15.135, 117.165 17.056, 114.556 19.938 L 112.653 22.041 110.076 19.600 C 107.048 16.730, 96.792 13.091, 89.583 12.329 L 84.500 11.791 88.254 14.558 C 90.319 16.080, 91.857 17.476, 91.673 17.660 C 91.489 17.844, 88.675 17.496, 85.419 16.886 C 78.526 15.596, 62.354 16.246, 60.721 17.879 C 59.893 18.707, 60.053 19, 61.332 19 C 62.285 19, 64.737 19.738, 66.782 20.639 L 70.500 22.278 66.653 23.436 C 62.270 24.756, 62.489 25.092, 70.541 29.396 C 74.544 31.536, 76.088 31.894, 78.041 31.138 C 80.382 30.231, 80.244 30.077, 75.171 27.927 C 70.522 25.956, 70.076 25.530, 71.671 24.586 C 74.589 22.861, 92.682 23.331, 98.932 25.294 C 101.919 26.232, 104.529 27, 104.731 27 C 105.819 27, 102.994 23.709, 100.027 21.520 C 98.087 20.089, 97.270 19, 98.136 19 C 99.625 19, 106.483 22.257, 110.524 24.883 C 112.296 26.035, 113.167 25.819, 117.524 23.148 C 120.261 21.470, 123.850 19.798, 125.500 19.431 L 128.500 18.764 125.029 21.402 C 123.119 22.853, 121.144 24.778, 120.639 25.681 C 119.888 27.023, 120.064 27.185, 121.610 26.574 C 122.650 26.164, 126.650 25.148, 130.500 24.318 C 137.407 22.828, 149.283 22.967, 153.407 24.586 C 154.973 25.201, 154.347 25.772, 149.907 27.780 C 144.637 30.163, 144.566 30.248, 147.125 31.154 C 149.311 31.928, 150.811 31.462, 156.085 28.371 L 162.420 24.658 158.460 23.468 L 154.500 22.278 158.218 20.639 C 160.263 19.738, 162.715 19, 163.668 19 C 165.053 19, 165.150 18.750, 164.151 17.750 C 163.300 16.899, 159.328 16.500, 151.701 16.500 C 145.540 16.500, 138.925 16.825, 137 17.223 L 133.500 17.946 137.417 14.473 C 139.571 12.563, 141.146 11.032, 140.917 11.070 C 140.687 11.109, 136.675 11.965, 132 12.973 M 50.488 26.655 C 47.795 29.348, 47 32.660, 47 41.188 C 47 48.236, 47.188 49.089, 48.500 48 C 49.363 47.284, 50.030 45.001, 50.070 42.628 C 50.140 38.532, 51.745 32.930, 51.969 36 C 52.029 36.825, 52.714 36.038, 53.491 34.250 C 54.268 32.462, 55.177 31, 55.511 31 C 55.845 31, 55.910 31.337, 55.655 31.750 C 55.400 32.163, 57.156 32.543, 59.556 32.595 C 61.957 32.647, 64.593 33.247, 65.413 33.928 C 66.855 35.124, 71.007 34.570, 70.993 33.183 C 70.981 31.901, 57.221 25, 54.679 25 C 53.284 25, 51.398 25.745, 50.488 26.655 M 161.286 28.553 C 157.868 30.491, 154.824 32.476, 154.521 32.966 C 153.613 34.435, 157.977 35.264, 159.587 33.928 C 160.407 33.247, 163.043 32.647, 165.444 32.595 C 167.977 32.540, 169.608 32.080, 169.330 31.500 C 169.067 30.950, 169.560 31.374, 170.426 32.441 C 171.292 33.509, 172 34.998, 172 35.750 C 172 36.502, 172.403 36.869, 172.895 36.565 C 174.131 35.801, 175 38.440, 175 42.959 C 175 45.113, 175.649 47.294, 176.500 48 C 177.812 49.089, 178 48.246, 178 41.272 C 178 29.201, 175.872 24.975, 169.816 25.015 C 168.542 25.024, 164.704 26.616, 161.286 28.553 M 82.972 28.072 C 85.431 29.188, 88.915 31.224, 90.715 32.596 C 92.514 33.969, 96.058 35.715, 98.590 36.477 C 101.122 37.239, 105.063 39.043, 107.347 40.485 L 111.500 43.107 106.261 38.127 C 103.193 35.211, 98.841 32.310, 95.761 31.126 L 90.500 29.104 95.500 28.963 L 100.500 28.821 95.500 27.430 C 92.750 26.665, 87.800 26.040, 84.500 26.041 L 78.500 26.044 82.972 28.072 M 129.500 27.472 L 125.500 28.790 130 28.942 L 134.500 29.094 129.952 30.873 C 124.154 33.143, 118.687 36.857, 115.864 40.446 L 113.651 43.260 117.728 40.561 C 119.971 39.077, 123.878 37.239, 126.410 36.477 C 128.942 35.715, 132.486 33.969, 134.285 32.596 C 136.085 31.224, 139.569 29.188, 142.028 28.072 L 146.500 26.044 140 26.099 C 136.425 26.129, 131.700 26.747, 129.500 27.472 M 78.500 33.406 C 66.813 37.121, 50.759 48.384, 43.344 58.071 C 38.191 64.802, 33.806 73.460, 31.166 82.117 C 28.933 89.437, 27.160 104.137, 28.707 102.500 C 30.442 100.665, 36.618 91.556, 39.244 86.960 C 43.009 80.371, 52.324 71.543, 61.458 65.909 C 65.835 63.209, 68.841 61, 68.139 61 C 66.489 61, 52.193 66.899, 49.219 68.807 C 45.658 71.092, 45.565 69.565, 49.025 65.624 C 53.287 60.770, 64.394 53.524, 72.143 50.543 C 77.410 48.517, 77.982 48.089, 75.478 48.049 C 73.816 48.022, 69.429 48.840, 65.728 49.866 C 62.028 50.892, 59 51.437, 59 51.078 C 59 49.699, 68.689 41.092, 72.500 39.085 C 74.700 37.927, 79.059 36.450, 82.186 35.803 C 87.126 34.781, 87.650 34.458, 86.186 33.345 C 84.137 31.788, 83.574 31.792, 78.500 33.406 M 138.814 33.331 C 137.345 34.460, 137.858 34.777, 142.814 35.803 C 145.941 36.450, 150.300 37.928, 152.500 39.088 C 156.641 41.271, 163.501 47.299, 165.036 50.104 C 165.817 51.530, 165.174 51.502, 159.229 49.854 C 155.552 48.834, 151.184 48.022, 149.522 48.049 C 147.018 48.089, 147.590 48.517, 152.857 50.543 C 156.354 51.889, 162.277 55.025, 166.021 57.514 C 172.727 61.972, 179.635 68.698, 178.586 69.748 C 178.290 70.043, 177.475 69.818, 176.774 69.247 C 173.652 66.703, 153.443 59.290, 154.561 61.098 C 154.867 61.594, 155.517 62, 156.005 62 C 156.494 62, 159.635 63.607, 162.986 65.571 C 172.236 70.992, 181.367 80.170, 188.719 91.435 C 192.332 96.971, 195.727 101.950, 196.263 102.500 C 197.850 104.128, 196.092 89.509, 193.812 82.117 C 191.186 73.605, 186.811 64.876, 181.833 58.216 C 176.520 51.107, 164.784 41.960, 154.738 37.097 C 145.149 32.456, 141.177 31.516, 138.814 33.331 M 80 38.935 C 76.747 39.928, 69.270 43.754, 68.663 44.736 C 68.404 45.156, 72.320 45.500, 77.367 45.500 C 85.710 45.500, 87.145 45.797, 93.186 48.771 C 96.840 50.570, 102.118 54.099, 104.915 56.613 C 107.712 59.128, 110 60.901, 110 60.553 C 110 60.205, 109.146 58.251, 108.103 56.210 C 104.249 48.673, 98.764 44.598, 90.855 43.395 C 88.460 43.031, 85.862 42.395, 85.082 41.982 C 82.876 40.816, 91.241 39.729, 97.269 40.399 L 102.500 40.980 99 39.566 C 95.249 38.051, 84.109 37.681, 80 38.935 M 126.250 39.119 C 124.463 39.635, 123 40.282, 123 40.556 C 123 40.831, 125.813 40.796, 129.250 40.479 C 132.688 40.163, 136.850 40.317, 138.500 40.822 L 141.500 41.741 138.500 42.416 C 125.548 45.331, 121.943 47.428, 117.969 54.357 C 116.346 57.186, 115.015 59.879, 115.009 60.343 C 115.004 60.806, 117.288 59.128, 120.085 56.613 C 122.882 54.099, 128.159 50.570, 131.812 48.771 C 137.851 45.797, 139.285 45.500, 147.630 45.500 C 152.676 45.500, 156.570 45.118, 156.282 44.651 C 155.995 44.183, 153.001 42.496, 149.630 40.901 C 144.581 38.513, 142.265 38.017, 136.500 38.091 C 132.650 38.140, 128.037 38.603, 126.250 39.119 M 39.875 44 C 35.884 50.089, 30 61.381, 30 62.949 C 30 64.541, 38.338 58.833, 41.631 54.986 C 44.458 51.686, 44.587 51.154, 44.048 45 L 43.480 38.500 39.875 44 M 180.784 45.050 C 180.327 51.122, 180.476 51.705, 183.326 54.986 C 186.793 58.978, 195 64.506, 195 62.849 C 195 61.231, 186.167 44.742, 183.526 41.430 L 181.269 38.600 180.784 45.050 M 87.899 59.375 C 82.628 60.796, 75.469 64.956, 78.250 64.983 C 79.213 64.992, 80 65.255, 80 65.567 C 80 65.878, 78.919 67.566, 77.598 69.317 C 75.367 72.275, 72 79.291, 72 80.983 C 72 81.390, 73.181 81.497, 74.624 81.221 L 77.249 80.719 74.686 85.110 C 73.277 87.524, 71.637 90.789, 71.043 92.364 C 70.106 94.850, 70.178 95.146, 71.593 94.603 C 72.931 94.089, 73.105 94.447, 72.563 96.605 C 70.906 103.207, 70.704 105.301, 71.787 104.632 C 72.532 104.171, 72.873 105.591, 72.846 109.046 C 72.825 111.848, 73.080 114.413, 73.414 114.747 C 73.748 115.081, 74.584 114.583, 75.273 113.641 C 76.410 112.086, 76.699 112.221, 78.403 115.104 L 80.279 118.281 82.117 115.891 C 83.128 114.576, 83.966 112.730, 83.978 111.789 C 84.003 109.820, 80.742 106.481, 76.750 104.389 C 74.496 103.209, 74.002 102.277, 74.011 99.224 C 74.017 97.176, 74.355 93.700, 74.761 91.500 C 75.439 87.833, 75.542 88.119, 76 94.950 C 76.485 102.175, 76.603 102.459, 79.926 104.394 C 83.250 106.330, 83.384 106.334, 84.426 104.531 C 85.017 103.508, 86.781 101.283, 88.347 99.586 L 91.193 96.500 88.995 99.797 C 87.786 101.610, 86.559 104.873, 86.267 107.047 C 85.812 110.435, 86.006 111.002, 87.618 111.015 C 89.205 111.028, 89.265 111.186, 88 112.023 C 86.728 112.864, 86.881 113.320, 89 115.021 C 91.025 116.645, 91.120 116.899, 89.500 116.358 C 88.400 115.990, 86.990 115.298, 86.367 114.819 C 85.653 114.271, 85.006 114.543, 84.617 115.556 C 84.278 116.440, 84 117.374, 84 117.631 C 84 117.888, 85.912 118.966, 88.250 120.027 C 92.723 122.058, 91.683 122.630, 86.316 121.091 C 83.778 120.363, 83.023 120.497, 82.538 121.761 C 81.863 123.520, 83.255 124.721, 87 125.613 C 88.375 125.940, 90.850 126.609, 92.500 127.100 C 94.951 127.828, 94.585 127.914, 90.500 127.567 C 87.750 127.333, 84.713 126.837, 83.750 126.464 C 82.430 125.953, 82 126.293, 82 127.848 C 82 129.449, 82.837 130.053, 85.750 130.553 C 87.813 130.907, 90.850 131.561, 92.500 132.008 C 95.021 132.690, 94.582 132.834, 89.750 132.910 C 86.588 132.959, 84 133.413, 84 133.918 C 84 135.376, 90.496 139, 93.118 139.005 C 95.905 139.010, 110.220 134.019, 111.104 132.733 C 111.436 132.251, 111.758 128.903, 111.819 125.296 C 111.881 121.688, 112.171 118.495, 112.465 118.201 C 112.759 117.907, 113 119.557, 113 121.869 C 113 125.822, 113.123 126.004, 115.093 124.950 C 117.157 123.846, 117.156 123.871, 114.989 126.801 C 111.613 131.368, 112.860 133.104, 121.782 136.250 C 126.070 137.762, 130.686 138.998, 132.040 138.996 C 134.823 138.992, 141 135.558, 141 134.015 C 141 133.457, 138.413 132.959, 135.250 132.910 C 130.418 132.834, 129.979 132.690, 132.500 132.008 C 134.150 131.561, 137.188 130.907, 139.250 130.553 C 142.163 130.053, 143 129.449, 143 127.848 C 143 126.511, 142.517 125.971, 141.628 126.313 C 140.873 126.602, 138.061 127.093, 135.378 127.403 L 130.500 127.966 136.813 125.929 C 141.657 124.365, 143.044 123.497, 142.775 122.196 C 142.557 121.147, 141.675 120.622, 140.462 120.821 C 132.153 122.179, 132.305 122.210, 136.837 120.069 C 139.353 118.880, 140.987 117.491, 140.729 116.760 C 140.249 115.400, 138.911 115.313, 135 116.387 C 132.594 117.047, 132.604 117.014, 135.250 115.505 C 138.215 113.814, 138.741 112.466, 136.750 111.662 C 136.003 111.361, 136.205 111.126, 137.250 111.079 C 139.673 110.970, 139.537 106.520, 136.959 101.485 L 134.917 97.500 137.459 100.306 C 138.856 101.849, 140 103.761, 140 104.556 C 140 106.539, 141.898 106.360, 145.750 104.011 C 148.914 102.082, 149.003 101.837, 149.118 94.765 C 149.207 89.303, 149.426 88.244, 150 90.500 C 150.420 92.150, 150.817 95.595, 150.882 98.155 C 150.996 102.656, 150.852 102.897, 146.510 105.441 C 141.228 108.537, 140.035 111.598, 142.591 115.499 L 144.352 118.185 146.154 115.843 C 147.145 114.554, 147.980 113.050, 148.010 112.500 C 148.039 111.950, 148.720 112.367, 149.521 113.427 C 150.323 114.487, 151.268 115.065, 151.621 114.712 C 151.974 114.359, 152.211 111.783, 152.148 108.987 C 152.069 105.462, 152.378 104.115, 153.155 104.596 C 153.952 105.089, 154.077 104.163, 153.585 101.395 C 153.205 99.253, 152.663 96.715, 152.381 95.756 C 152.006 94.479, 152.293 94.175, 153.453 94.620 C 154.814 95.143, 154.885 94.825, 153.957 92.364 C 153.363 90.789, 151.779 87.620, 150.438 85.322 C 149.097 83.024, 148 80.949, 148 80.711 C 148 80.472, 149.175 80.502, 150.611 80.776 C 152.972 81.228, 153.154 81.047, 152.507 78.888 C 151.592 75.830, 147.278 68.290, 145.988 67.493 C 144.443 66.538, 144.826 65.182, 146.750 64.791 C 147.890 64.560, 146.529 63.464, 142.847 61.648 C 138.802 59.653, 135.035 58.697, 129.597 58.286 C 122.839 57.775, 122 57.903, 122 59.442 C 122 60.394, 120.643 63.063, 118.984 65.372 C 117.326 67.682, 115.575 71.580, 115.094 74.036 C 114.303 78.071, 114.209 78.184, 114.110 75.217 C 114.049 73.411, 115.175 69.586, 116.610 66.717 L 119.220 61.500 115.827 64.736 L 112.434 67.972 109.121 64.736 L 105.809 61.500 108.404 66.717 C 109.832 69.586, 110.951 73.411, 110.890 75.217 C 110.792 78.165, 110.691 78.041, 109.903 74 C 109.420 71.525, 107.669 67.574, 106.012 65.221 C 104.356 62.867, 103 60.280, 103 59.471 C 103 58.355, 101.734 58.016, 97.750 58.067 C 94.862 58.105, 90.429 58.693, 87.899 59.375 M 66.500 65.762 C 57.044 70.766, 45.544 82.293, 41.268 91.053 C 35.806 102.241, 33.940 113.986, 35.646 126.433 C 36.071 129.531, 36.579 130.693, 37.131 129.823 C 37.592 129.095, 37.982 127.600, 37.998 126.500 C 38.013 125.400, 39.152 122.250, 40.528 119.500 C 41.904 116.750, 42.797 115.625, 42.511 117 C 41.087 123.866, 40.853 133.990, 41.991 139.500 C 43.488 146.743, 46.243 154.291, 49.079 158.918 C 50.718 161.591, 51.370 162.026, 52.072 160.918 C 52.566 160.138, 52.985 157.925, 53.003 156 C 53.047 151.396, 55.612 136.925, 57.608 130.014 C 58.480 126.997, 60.998 121.069, 63.205 116.840 C 65.412 112.612, 67.033 108.599, 66.808 107.924 C 66.583 107.248, 64.235 109.573, 61.591 113.091 C 56.518 119.839, 52.098 127.960, 50.038 134.317 C 49.357 136.416, 48.674 137.991, 48.519 137.817 C 48.365 137.643, 48.658 134.350, 49.170 130.500 C 50.245 122.432, 54.406 112.778, 59.936 105.522 C 64.074 100.094, 67.473 94, 66.363 94 C 64.497 94, 55.648 100.679, 50.991 105.603 C 46.325 110.537, 45.823 110.837, 46.449 108.325 C 47.793 102.931, 53.130 95.058, 59.350 89.295 C 62.789 86.108, 66.682 81.955, 68 80.067 C 70.176 76.950, 70.218 76.701, 68.449 77.365 C 63.303 79.298, 55.008 85.170, 48.351 91.594 C 44.308 95.496, 41 98.484, 41 98.234 C 41 97.984, 42.443 95.072, 44.207 91.763 C 48.032 84.586, 56.566 75.829, 64.440 71 C 71.699 66.549, 77.001 62.059, 75 62.058 C 74.175 62.058, 70.350 63.725, 66.500 65.762 M 151.612 64.779 C 153.323 66.276, 157.344 69.075, 160.546 71 C 168.262 75.639, 177.005 84.657, 180.935 92.030 C 182.685 95.313, 183.977 98, 183.806 98 C 183.634 98, 180.308 94.963, 176.414 91.250 C 169.998 85.134, 161.606 79.263, 156.585 77.378 C 155.041 76.799, 155.293 77.566, 157.883 81.330 C 159.650 83.898, 161.445 86, 161.871 86 C 162.297 86, 164.943 88.309, 167.750 91.131 C 172.297 95.701, 179 106.870, 179 109.876 C 179 110.497, 177.313 109.128, 175.250 106.832 C 171.394 102.542, 160.491 94, 158.870 94 C 157.594 94, 161.178 100.722, 165.003 105.500 C 170.042 111.797, 173.738 120.006, 175.543 128.915 C 176.458 133.431, 177.007 137.326, 176.764 137.570 C 176.520 137.813, 175.063 134.807, 173.526 130.889 C 170.816 123.982, 162.611 110.582, 159.521 108.018 C 156.851 105.802, 157.706 109.103, 161.870 117.083 C 163.998 121.162, 166.450 126.750, 167.318 129.500 C 169.181 135.397, 171.797 150.488, 172.139 157.308 C 172.271 159.953, 172.692 162.309, 173.073 162.545 C 173.454 162.781, 175.348 159.942, 177.280 156.237 C 182.016 147.159, 184.454 135.793, 183.638 126.599 C 183.291 122.695, 182.774 118.375, 182.489 117 C 182.203 115.625, 183.096 116.750, 184.472 119.500 C 185.848 122.250, 186.987 125.400, 187.002 126.500 C 187.018 127.600, 187.431 129.132, 187.919 129.904 C 189.192 131.914, 190.404 119.228, 189.679 111.471 C 188.398 97.743, 181.472 84.215, 170.767 74.527 C 165.078 69.379, 152.677 61.968, 149.854 62.029 C 149.109 62.045, 149.900 63.283, 151.612 64.779 M 86.540 73.750 C 86.106 75.537, 85.389 77, 84.948 77 C 84.506 77, 83.212 75.814, 82.073 74.365 C 80.546 72.425, 80 72.165, 80 73.379 C 80 74.285, 80.493 75.816, 81.095 76.781 C 81.903 78.074, 83.282 78.470, 86.345 78.287 C 89.927 78.074, 90.130 78.161, 87.819 78.915 C 86.344 79.396, 84.106 80.512, 82.846 81.395 C 80.710 82.891, 80.689 83, 82.537 83 C 83.627 83, 85.081 83.900, 85.768 85 C 86.660 86.429, 88.100 87, 90.808 87 C 92.894 87, 95.196 87.563, 95.925 88.250 C 97.015 89.278, 97.134 88.967, 96.594 86.500 C 96.233 84.850, 95.667 81.582, 95.337 79.239 C 94.800 75.423, 94.597 75.161, 93.400 76.739 C 92.201 78.319, 92.053 78.141, 91.964 75 C 91.872 71.746, 91.788 71.658, 90.780 73.750 C 90.183 74.987, 89.343 76, 88.914 76 C 88.484 76, 87.952 74.763, 87.732 73.250 L 87.330 70.500 86.540 73.750 M 137 73.441 C 137 76.394, 135.561 76.792, 134.080 74.250 C 133.222 72.777, 133.052 72.974, 133.008 75.500 L 132.956 78.500 131.228 76.256 C 129.508 74.022, 129.500 74.031, 129.432 78.256 C 129.395 80.590, 128.998 84.075, 128.550 86 C 127.876 88.895, 127.966 89.284, 129.068 88.250 C 129.800 87.563, 131.885 87, 133.700 87 C 135.667 87, 137.808 86.192, 139 85 C 140.100 83.900, 141.775 83, 142.723 83 C 144.116 83, 144.008 82.694, 142.154 81.395 C 140.894 80.512, 138.656 79.396, 137.181 78.915 C 134.870 78.161, 135.073 78.074, 138.655 78.287 C 141.718 78.470, 143.097 78.074, 143.905 76.781 C 144.507 75.816, 145 74.285, 145 73.379 C 145 72.165, 144.454 72.425, 142.927 74.365 C 141.788 75.814, 140.438 77, 139.927 77 C 139.417 77, 139 75.902, 139 74.559 C 139 73.216, 138.550 71.840, 138 71.500 C 137.433 71.149, 137 71.990, 137 73.441 M 87.362 81.500 C 86.339 84.164, 87.811 86, 90.969 86 C 92.986 86, 94 85.502, 94 84.512 C 94 83.584, 93.195 83.113, 91.860 83.262 C 90.683 83.393, 89.521 82.937, 89.277 82.249 C 88.983 81.422, 89.454 81.200, 90.666 81.594 C 92.191 82.088, 92.247 82.007, 91 81.110 C 88.950 79.635, 88.040 79.733, 87.362 81.500 M 133.231 81.550 C 132.004 82.410, 131 83.791, 131 84.620 C 131 85.717, 131.883 86.042, 134.250 85.813 C 136.934 85.555, 137.500 85.079, 137.500 83.083 C 137.500 81.754, 137.042 80.514, 136.481 80.327 C 135.921 80.140, 134.459 80.691, 133.231 81.550 M 134 82 C 133.207 82.490, 132.890 83.223, 133.296 83.629 C 133.701 84.035, 134.558 83.842, 135.200 83.200 C 136.711 81.689, 135.868 80.846, 134 82 M 104.250 84.526 C 102.463 85.284, 101 86.166, 101 86.487 C 101 86.808, 101.870 86.605, 102.934 86.035 C 105.739 84.534, 109.561 84.766, 111.021 86.525 C 112.151 87.887, 112.483 87.873, 114.121 86.391 C 115.455 85.183, 116.983 84.892, 119.727 85.322 C 122.820 85.807, 123.150 85.712, 121.558 84.799 C 118.618 83.114, 107.979 82.946, 104.250 84.526 M 84.218 88.250 C 86 89.992, 88.034 90.962, 89.766 90.898 C 92.334 90.801, 92.299 90.748, 89.185 90.011 C 87.361 89.579, 84.865 88.388, 83.636 87.363 C 82.408 86.338, 82.670 86.737, 84.218 88.250 M 141.343 87.102 C 140.187 88.258, 137.724 89.561, 135.871 89.999 C 132.744 90.738, 132.698 90.803, 135.234 90.898 C 136.968 90.963, 139.163 89.913, 141.234 88.029 C 143.030 86.395, 144.262 85.045, 143.972 85.029 C 143.682 85.013, 142.499 85.946, 141.343 87.102 M 96.123 97.526 C 94.357 103.213, 93.983 105.961, 94.591 108.776 L 95.396 112.500 95.778 109.500 C 95.988 107.850, 97.137 105.426, 98.330 104.114 L 100.500 101.729 98.250 102.899 C 96.357 103.885, 96 103.811, 96 102.436 C 96 101.538, 97.463 99.433, 99.250 97.759 C 101.746 95.422, 102.018 94.868, 100.421 95.371 C 98.576 95.952, 98.392 95.687, 98.785 93.013 C 99.028 91.356, 99.054 90, 98.843 90 C 98.632 90, 97.408 93.387, 96.123 97.526 M 126.305 92.763 C 126.604 95.535, 126.385 95.939, 124.843 95.450 C 123.594 95.054, 123.960 95.806, 126.014 97.860 C 127.656 99.502, 129 101.572, 129 102.458 C 129 103.810, 128.637 103.882, 126.750 102.899 L 124.500 101.729 126.670 104.114 C 127.863 105.426, 129.012 107.850, 129.222 109.500 C 129.594 112.424, 129.625 112.400, 130.451 108.551 C 131.136 105.355, 130.787 103.160, 128.625 97.051 C 127.005 92.473, 126.091 90.785, 126.305 92.763 M 99.832 114.703 C 99.250 115.404, 98.262 115.672, 97.637 115.297 C 97.012 114.923, 97.169 115.439, 97.986 116.445 C 99.390 118.172, 107.060 122, 109.118 122 C 110.628 122, 108.200 118.177, 105.913 116.954 C 104.384 116.135, 103.483 116.184, 102.321 117.149 C 101.007 118.239, 100.825 118.156, 101.135 116.601 C 101.463 114.953, 102.627 114.765, 112.500 114.765 C 122.373 114.765, 123.537 114.953, 123.865 116.601 C 124.175 118.156, 123.993 118.239, 122.679 117.149 C 121.517 116.184, 120.616 116.135, 119.087 116.954 C 116.908 118.120, 114.735 121.401, 115.581 122.248 C 116.258 122.924, 126.771 117.203, 127.641 115.685 C 128.015 115.033, 127.952 114.834, 127.502 115.241 C 127.052 115.649, 126.019 115.431, 125.206 114.756 C 123.106 113.013, 101.272 112.967, 99.832 114.703 M 61.382 128.676 C 58.831 136.914, 58.790 157.340, 61.309 165.003 C 62.304 168.029, 64.010 171.629, 65.099 173.003 L 67.080 175.500 66.522 170 C 66.214 166.975, 66.343 162.250, 66.808 159.500 L 67.653 154.500 68.860 159 C 71.105 167.365, 73.969 174.114, 77.590 179.569 C 79.572 182.556, 81.488 184.997, 81.847 184.993 C 82.206 184.989, 82.562 180.601, 82.637 175.243 C 82.725 169.046, 83.365 163.896, 84.398 161.094 C 87.339 153.111, 84.496 155.213, 81.133 163.508 C 79.244 168.167, 79.105 168.292, 79.055 165.381 C 79 162.240, 81.453 146.861, 82.565 143.375 C 83.117 141.645, 83.032 141.655, 81.469 143.500 C 80.537 144.600, 78.726 147.750, 77.445 150.500 L 75.115 155.500 75.078 150 C 75.058 146.975, 75.631 141.688, 76.351 138.250 C 77.072 134.813, 77.324 132, 76.912 132 C 75.893 132, 72.304 137.928, 70.467 142.643 L 68.965 146.500 69.452 138.963 C 69.719 134.817, 70.627 129.475, 71.468 127.092 C 72.769 123.404, 72.781 122.937, 71.548 123.960 C 69.501 125.659, 65.883 133.443, 63.862 140.498 L 62.142 146.500 62.071 140.386 C 62.032 137.024, 62.452 131.889, 63.005 128.975 C 63.557 126.061, 63.824 123.491, 63.597 123.264 C 63.371 123.037, 62.373 125.473, 61.382 128.676 M 153.694 127.214 C 154.510 129.572, 155.370 134.875, 155.604 139 L 156.031 146.500 154.530 142.643 C 152.641 137.783, 149.097 132, 148.009 132 C 147.553 132, 147.799 134.588, 148.555 137.750 C 149.310 140.912, 149.925 146.425, 149.920 150 L 149.912 156.500 148.619 152.882 C 147.258 149.073, 142.991 141.675, 142.461 142.206 C 142.290 142.377, 142.774 145.200, 143.536 148.480 C 144.299 151.759, 145.181 157.606, 145.496 161.471 L 146.069 168.500 144.059 163.560 C 142.954 160.844, 141.299 157.919, 140.383 157.060 C 138.858 155.632, 138.777 155.670, 139.433 157.500 C 141.843 164.222, 143.120 171.962, 142.829 178.084 C 142.648 181.890, 142.794 185.003, 143.153 185.002 C 143.512 185.001, 145.352 182.637, 147.242 179.750 C 150.858 174.226, 154.165 166.530, 156.157 159 L 157.347 154.500 158.192 159.500 C 158.657 162.250, 158.786 166.975, 158.478 170 L 157.920 175.500 159.963 173 C 161.087 171.625, 162.792 168.025, 163.753 165 C 166.206 157.278, 166.130 136.786, 163.618 128.676 C 162.627 125.473, 161.629 123.037, 161.403 123.264 C 161.176 123.491, 161.443 126.061, 161.995 128.975 C 162.548 131.889, 162.968 137.024, 162.929 140.386 L 162.858 146.500 161.138 140.498 C 159.156 133.579, 155.509 125.667, 153.555 124.045 C 152.483 123.156, 152.512 123.801, 153.694 127.214 M 108.500 125 C 108.840 125.550, 109.343 126, 109.618 126 C 109.893 126, 109.840 125.550, 109.500 125 C 109.160 124.450, 108.657 124, 108.382 124 C 108.107 124, 108.160 124.450, 108.500 125 M 110.983 136.520 C 110.266 137.384, 109.128 137.879, 108.455 137.621 C 107.781 137.362, 106.284 137.813, 105.128 138.623 C 103.208 139.968, 103.084 139.940, 103.700 138.297 C 104.282 136.747, 104.153 136.680, 102.758 137.814 C 101.869 138.537, 99.665 139.315, 97.861 139.543 C 95.947 139.785, 93.322 141.217, 91.559 142.979 C 89.167 145.372, 88.902 146, 90.288 146 C 91.688 146, 91.908 146.551, 91.390 148.750 C 90.857 151.011, 90.978 151.278, 92.071 150.250 C 92.802 149.563, 93.710 149, 94.089 149 C 94.468 149, 94.757 149.563, 94.731 150.250 C 94.706 150.938, 94.766 152.400, 94.865 153.500 C 95.032 155.361, 95.177 155.327, 96.956 153.012 L 98.868 150.523 99.830 153.053 C 100.359 154.444, 101.445 156.125, 102.244 156.788 C 103.410 157.755, 104.066 157.585, 105.567 155.926 L 107.437 153.860 110.054 157.066 L 112.670 160.272 114.950 157.070 L 117.230 153.868 119.571 156.066 L 121.911 158.265 124.119 154.523 L 126.327 150.781 128.141 153.141 C 129.858 155.373, 129.965 155.392, 130.135 153.500 C 130.234 152.400, 130.292 150.922, 130.263 150.216 C 130.229 149.373, 130.911 149.154, 132.252 149.580 C 133.957 150.121, 134.202 149.880, 133.740 148.114 C 133.344 146.598, 133.650 146, 134.824 146 C 137.850 146, 130.701 139.994, 127.139 139.543 C 125.335 139.315, 123.131 138.537, 122.242 137.814 C 120.846 136.679, 120.718 136.747, 121.306 138.313 C 121.896 139.887, 121.568 139.829, 118.812 137.866 C 117.067 136.623, 115.972 136.145, 116.378 136.803 C 117.420 138.488, 115.980 138.292, 113.972 136.475 C 112.460 135.107, 112.152 135.111, 110.983 136.520 M 94.089 165.500 C 93.421 168.800, 92.743 171.950, 92.583 172.500 C 92.424 173.050, 91.679 170.800, 90.928 167.500 L 89.563 161.500 88.729 166 C 87.370 173.339, 88.735 182.717, 92.182 189.718 C 96.728 198.952, 97.496 199.181, 99.029 191.762 L 100.322 185.500 101.082 189.593 C 101.500 191.845, 102.569 195.445, 103.457 197.593 C 105.520 202.585, 111.195 210.996, 112.500 210.996 C 113.805 210.996, 119.480 202.585, 121.543 197.593 C 122.431 195.445, 123.500 191.845, 123.918 189.593 L 124.678 185.500 125.971 191.762 C 127.032 196.899, 127.513 197.819, 128.645 196.880 C 129.404 196.250, 131.347 192.964, 132.963 189.578 C 136.260 182.670, 137.595 173.152, 136.271 166 L 135.437 161.500 134.072 167.500 C 133.321 170.800, 132.576 173.050, 132.417 172.500 C 132.257 171.950, 131.579 168.800, 130.911 165.500 L 129.695 159.500 128.383 167.091 C 127.662 171.265, 126.542 175.990, 125.895 177.591 C 124.765 180.384, 124.660 180.191, 123.267 172.748 C 122.469 168.484, 121.407 165.248, 120.908 165.557 C 120.409 165.866, 119.989 167.329, 119.975 168.809 C 119.940 172.476, 113.745 190.233, 112.500 190.233 C 111.255 190.233, 105.060 172.476, 105.025 168.809 C 105.011 167.329, 104.591 165.866, 104.092 165.557 C 103.593 165.248, 102.531 168.484, 101.733 172.748 C 100.340 180.191, 100.235 180.384, 99.105 177.591 C 98.458 175.990, 97.338 171.265, 96.617 167.091 L 95.305 159.500 94.089 165.500 " stroke="none" fill="black" fill-rule="evenodd"/>
</svg>